<?xml version="1.0" encoding="UTF-8"?>
<svg id="_Слой_1" data-name="Слой 1" xmlns="http://www.w3.org/2000/svg" viewBox="0 0 466.00506 50.08021">
  <defs>
    <style>
      .cls-1 {
        letter-spacing: 1.88941em;
      }

      .cls-2 {
        letter-spacing: 1.93602em;
      }

      .cls-3 {
        letter-spacing: 1.81753em;
      }

      .cls-4 {
        letter-spacing: 1.90179em;
      }

      .cls-5 {
        font-family: RidleyGrotesk-Bold, 'Ridley Grotesk';
        font-size: 9.15669px;
        font-weight: 700;
      }

      .cls-5, .cls-6 {
        fill: #9e9e9f;
      }

      .cls-7 {
        letter-spacing: 1.95607em;
      }

      .cls-8 {
        letter-spacing: 1.91661em;
      }

      .cls-9 {
        letter-spacing: 1.91501em;
      }

      .cls-10 {
        letter-spacing: 1.9149em;
      }

      .cls-11 {
        letter-spacing: 1.93815em;
      }

      .cls-12 {
        letter-spacing: 1.93186em;
      }

      .cls-13 {
        letter-spacing: 1.92226em;
      }

      .cls-14 {
        letter-spacing: 1.92525em;
      }

      .cls-15 {
        letter-spacing: 1.92418em;
      }

      .cls-6 {
        stroke-width: 0px;
      }

      .cls-16 {
        letter-spacing: 1.93517em;
      }

      .cls-17 {
        letter-spacing: 1.92749em;
      }
    </style>
  </defs>
  <g>
    <g>
      <path class="cls-6" d="M0,33.26135V.01823h35.08201l.00197,7.97278H11.91392l-.00197,4.93013h21.42312v7.48328H11.91195l-.03647,4.92145h23.58893l.03647,7.93549H0Z"/>
      <path class="cls-6" d="M65.17011,33.40722l-6.87542-12.10095h-6.30843v12.10095h-11.95792V.1641h24.48283c4.47464,0,8.76029.32691,11.44201,4.56659.61296.98585,1.69587,2.96777,1.69587,5.98151,0,1.55284-.32691,5.97641-4.52061,8.28524-.80196.46994-1.40982.70491-3.10569,1.12888l8.28524,13.2809h-13.13788ZM65.26716,9.62997c-.53571-.63485-1.21571-.90243-1.51964-.99045-.5887-.17042-1.23615-.21091-1.8721-.21091h-9.88916v5.39041h8.94418c1.15154.0464,2.05215-.10897,2.63032-.24804,1.04108-.25043,1.39992-.53558,1.57583-.70474.33968-.3265.49452-.69742.55678-.85027.06832-.16803.21166-.53235.18165-1.0048-.0447-.70066-.44216-1.18478-.60786-1.38121Z"/>
      <path class="cls-6" d="M105.06559,33.29782l-8.70921-12.57088-4.14773,3.95362v8.61726h-11.01804V.0547h11.06912v12.42786L103.41569.0547h14.46086l-13.04593,12.57088,14.5528,20.67224h-14.31783Z"/>
      <path class="cls-6" d="M123.1369,33.35252V.1094h11.91706v33.24312h-11.91706Z"/>
      <path class="cls-6" d="M166.55085,33.24312l-15.77873-17.80152v17.80152h-11.76892V0h9.83808l15.87068,17.51547V0h11.72295v33.24312h-9.88406Z"/>
    </g>
    <g>
      <path class="cls-6" d="M391.02139,33.26135V.01823h35.08201l.00197,7.97278h-23.17007l-.00197,4.93013h21.42312v7.48328h-21.42312l-.03647,4.92145h23.58893l.03647,7.93549h-35.50087Z"/>
      <path class="cls-6" d="M310.74345,33.26135V.01823h35.08201l.00197,7.97278h-23.17007l-.00197,4.93013h21.42312v7.48328h-21.42312l-.03647,4.92145h23.58893l.03647,7.93549h-35.50087Z"/>
      <path class="cls-6" d="M230.4655,33.45508V.21196h35.08201l.00197,7.97278h-23.17007l-.00197,4.93013h21.42312v7.48328h-21.42312l-.03647,4.92145h23.58893l.03647,7.93549h-35.50087Z"/>
      <path class="cls-6" d="M294.35686,33.40722l-6.87542-12.10095h-6.30843v12.10095h-11.95792V.1641h24.48283c4.47464,0,8.76029.32691,11.44201,4.56659.61296.98585,1.69587,2.96777,1.69587,5.98151,0,1.55284-.32691,5.97641-4.52061,8.28524-.80196.46994-1.40982.70491-3.10569,1.12888l8.28524,13.2809h-13.13788ZM294.45391,9.62997c-.53571-.63485-1.21571-.90243-1.51964-.99045-.5887-.17042-1.23615-.21091-1.8721-.21091h-9.88916v5.39041h8.94418c1.15154.0464,2.05215-.10897,2.63032-.24804,1.04108-.25043,1.39992-.53558,1.57583-.70474.33968-.3265.49452-.69742.55678-.85027.06832-.16803.21166-.53235.18165-1.0048-.0447-.70066-.44216-1.18478-.60786-1.38121Z"/>
      <path class="cls-6" d="M215.30484,33.40722v-12.75988h-14.5477v12.75988h-11.96303V.1641h12.009v12.10095h14.50172V.1641h12.05497v33.24312h-12.05497Z"/>
      <path class="cls-6" d="M373.41143,33.40722l-8.70921-12.57088-4.14773,3.95362v8.61726h-11.01804V.1641h11.06912v12.42786L371.76153.1641h14.46086l-13.04593,12.57088,14.5528,20.67224h-14.31783Z"/>
      <path class="cls-6" d="M454.22003,7.99101l.011,25.30681h-11.95792l-.011-25.30681h-11.82l.011-7.93631h35.55195l-.011,7.93631h-11.77403Z"/>
    </g>
  </g>
  <text class="cls-5" transform="translate(42.61286 47.2881)"><tspan class="cls-12" x="0" y="0">H</tspan><tspan class="cls-8" x="25.06055" y="0">O</tspan><tspan class="cls-4" x="50.34766" y="0">J</tspan><tspan class="cls-17" x="74.12598" y="0">A</tspan><tspan class="cls-3" x="99.05469" y="0">L</tspan><tspan class="cls-14" x="121.81348" y="0">Y</tspan><tspan class="cls-10" x="146.17285" y="0">K </tspan><tspan class="cls-11" x="190.94824" y="0">J</tspan><tspan class="cls-2" x="215.05957" y="0">E</tspan><tspan class="cls-12" x="239.19629" y="0">M</tspan><tspan class="cls-1" x="265.17285" y="0">G</tspan><tspan class="cls-7" x="289.84473" y="0">Y</tspan><tspan class="cls-15" x="314.48633" y="0">Ý</tspan><tspan class="cls-16" x="338.83594" y="0">E</tspan><tspan class="cls-13" x="362.96484" y="0">T</tspan><tspan class="cls-9" x="386.83887" y="0">I</tspan></text>
</svg>